HIERARCHY
ROOT Hips
{
	OFFSET 0.00000 0.00000 0.00000
	CHANNELS 6 Xposition Yposition Zposition Zrotation Yrotation Xrotation 
	JOINT LHipJoint
	{
		OFFSET 0 0 0
		CHANNELS 3 Zrotation Yrotation Xrotation
		JOINT LeftHip
		{
			OFFSET 1.56857 -1.73443 1.15205
			CHANNELS 3 Zrotation Yrotation Xrotation
			JOINT LeftKnee
			{
				OFFSET 2.39362 -6.57643 0.00000
				CHANNELS 3 Zrotation Yrotation Xrotation
				JOINT LeftAnkle
				{
					OFFSET 2.50952 -6.89485 0.00000
					CHANNELS 3 Zrotation Yrotation Xrotation
					JOINT LeftToe
					{
						OFFSET 0.17171 -0.47178 1.88682
						CHANNELS 3 Zrotation Yrotation Xrotation
						End Site
						{
							OFFSET 0.00000 -0.00000 0.98146
						}
					}
				}
			}
		}
	}
	JOINT RHipJoint
	{
		OFFSET 0 0 0
		CHANNELS 3 Zrotation Yrotation Xrotation
		JOINT RightHip
		{
			OFFSET -1.28153 -1.73443 1.15205
			CHANNELS 3 Zrotation Yrotation Xrotation
			JOINT RightKnee
			{
				OFFSET -2.26861 -6.23296 0.00000
				CHANNELS 3 Zrotation Yrotation Xrotation
				JOINT RightAnkle
				{
					OFFSET -2.54143 -6.98254 0.00000
					CHANNELS 3 Zrotation Yrotation Xrotation
					JOINT RightToe
					{
						OFFSET -0.23309 -0.64041 1.93119
						CHANNELS 3 Zrotation Yrotation Xrotation
						End Site
						{
							OFFSET -0.00000 -0.00000 1.02013
						}
					}
				}
			}
		}
	}
	JOINT lowerback
	{
		OFFSET 0 0 0
		CHANNELS 3 Zrotation Yrotation Xrotation
		JOINT Chest
		{
			OFFSET -0.07096 2.10460 -0.27878
			CHANNELS 3 Zrotation Yrotation Xrotation
			JOINT Chest2
			{
				OFFSET -0.00826 2.13662 -0.08279
				CHANNELS 3 Zrotation Yrotation Xrotation
				JOINT lowerneck
				{
					OFFSET 0 0 0
					CHANNELS 3 Zrotation Yrotation Xrotation
					JOINT Neck
					{
						OFFSET 0.03239 1.77799 0.24435
						CHANNELS 3 Zrotation Yrotation Xrotation
						JOINT Head
						{
							OFFSET 0.01026 1.74194 -0.49664
							CHANNELS 3 Zrotation Yrotation Xrotation
							End Site
							{
								OFFSET 0.00170 1.83057 -0.19653
							}
						}
					}
				}
				JOINT LeftCollar
				{
					OFFSET 0 0 0
					CHANNELS 3 Zrotation Yrotation Xrotation
					JOINT LeftShoulder
					{
						OFFSET 3.19178 1.35907 -0.31412
CHANNELS 3 Zrotation Xrotation Yrotation
						JOINT LeftElbow
						{
OFFSET 0 -4.852470 -0.000000
CHANNELS 3 Zrotation Xrotation Yrotation
							JOINT LeftWrist
							{
OFFSET 0 -3.555840 0.000000
CHANNELS 3 Zrotation Xrotation Yrotation
								JOINT lhand
								{
									OFFSET 0 0 0
CHANNELS 3 Zrotation Xrotation Yrotation
									JOINT LFingers
									{
OFFSET 0 -0.693200 0.000000
CHANNELS 3 Zrotation Xrotation Yrotation
										End Site
										{
OFFSET 0 -0.558880 0.000000
										}
									}
								}
								JOINT LThumb
								{
OFFSET 0 0.000000 0.000000
CHANNELS 3 Zrotation Xrotation Yrotation
									End Site
									{
OFFSET 0 -0.567410 0.567410
									}
								}
							}
						}
					}
				}
				JOINT RightCollar
				{
					OFFSET 0 0 0
					CHANNELS 3 Zrotation Yrotation Xrotation
					JOINT RightShoulder
					{
						OFFSET -3.28999 1.24191 -0.26899
CHANNELS 3 Zrotation Xrotation Yrotation
						JOINT RightElbow
						{
OFFSET 0 -4.644620 0.000000
CHANNELS 3 Zrotation Xrotation Yrotation
							JOINT RightWrist
							{
OFFSET 0 -3.407030 0.000000
CHANNELS 3 Zrotation Xrotation Yrotation
								JOINT rhand
								{
									OFFSET 0 0 0
CHANNELS 3 Zrotation Xrotation Yrotation
									JOINT RFingers
									{
OFFSET 0 -0.619580 0.000000
CHANNELS 3 Zrotation Xrotation Yrotation
										End Site
										{
OFFSET 0 -0.499520 0.000000
										}
									}
								}
								JOINT RThumb
								{
OFFSET 0 0.000000 0.000000
CHANNELS 3 Zrotation Xrotation Yrotation
									End Site
									{
OFFSET 0 -0.507150 0.507150
									}
								}
							}
						}
					}
				}
			}
		}
	}
}
MOTION
Frames: 4
Frame Time: 0.008333333333333333
12.979609 16.079558 -1.093147 -306.299055 73.642921 -301.654843 0.000000 0.000000 0.000000 28.258815 9.182312 -53.732009 22.020310 19.901454 95.916315 0.443854 1.460994 -13.188454 2.100524 -9.069162 -26.014289 0.000000 0.000000 0.000000 30.615281 1.447311 5.080930 -1.227050 -7.013882 19.761296 -3.148143 -0.520040 -33.834683 -3.682635 -11.719193 34.754008 2.114632 7.057792 24.630805 -2.878518 9.990077 7.864033 -6.989031 5.223161 -3.913124 1.979008 -5.088926 -18.034270 -1.372463 -6.872867 27.927523 -1.857053 -2.801701 12.047139 0.000000 0.000000 0.000000 5.555678 31.012725 11.095179 16.284640 -25.904626 3.769719 37.693778 -31.545887 21.985565 0.000000 0.000000 0.000000 -7.125000 0.000000 0.000000 5.444572 3.053799 5.170544 0.000000 0.000000 0.000000 -13.438050 -8.172361 50.459622 -47.927189 -52.121586 -24.529052 -21.496398 9.166536 22.345900 0.000000 0.000000 0.000000 7.125000 0.000000 0.000000 7.787163 53.648281 -1.663592
13.197495 16.138728 -1.119935 -307.724422 73.847958 -302.227858 0.000000 0.000000 0.000000 25.544850 10.502051 -57.224362 21.770757 19.923775 95.183853 0.389702 1.414984 -12.392140 2.305613 -9.469145 -27.279394 0.000000 0.000000 0.000000 30.242040 0.293446 5.732908 -1.019538 -6.416679 18.000695 -2.925711 0.900233 -32.181965 -3.317202 -11.185089 32.914090 2.417912 7.463694 24.148675 -3.052899 10.552996 7.647174 -7.418454 5.501144 -3.753565 1.918354 -5.509401 -17.853348 -1.187729 -7.472777 28.294869 -1.869739 -3.026439 12.155238 0.000000 0.000000 0.000000 5.694048 32.820039 11.763191 16.059017 -25.600418 3.671478 37.994407 -30.017235 21.821476 0.000000 0.000000 0.000000 -7.125000 0.000000 0.000000 5.658621 3.159269 5.364240 0.000000 0.000000 0.000000 -13.925089 -8.574666 50.739682 -48.891972 -52.536385 -25.292579 -22.155288 8.322840 22.304272 0.000000 0.000000 0.000000 7.125000 0.000000 0.000000 7.097887 53.730510 -1.528944
13.419425 16.199614 -1.138758 -308.965371 74.362464 -302.715097 0.000000 0.000000 0.000000 22.979217 11.301618 -60.511403 21.360129 19.955224 93.979622 0.364836 0.967174 -11.801566 2.650089 -10.103175 -29.313790 0.000000 0.000000 0.000000 30.115466 -1.024190 6.419380 -0.833163 -5.819599 16.262826 -2.675584 2.270389 -30.388942 -2.893869 -10.518215 30.674883 2.989120 7.800423 23.751525 -3.156699 11.096859 7.476757 -7.909024 5.777840 -3.541008 1.519190 -6.071469 -17.872714 -0.503348 -8.338962 28.597514 -1.688632 -3.339464 12.320930 0.000000 0.000000 0.000000 6.087479 34.541332 11.729185 15.889761 -25.370897 3.598663 38.637346 -29.072658 21.375060 0.000000 0.000000 0.000000 -7.125000 0.000000 0.000000 6.135634 3.497315 5.783467 0.000000 0.000000 0.000000 -14.344548 -8.877776 50.726204 -50.007354 -52.997441 -26.180299 -22.659414 6.998000 22.456253 0.000000 0.000000 0.000000 7.125000 0.000000 0.000000 6.633344 53.985516 -1.469840
13.647471 16.262633 -1.153386 -309.862816 74.953493 -302.852432 0.000000 0.000000 0.000000 20.326747 11.576757 -63.603223 20.799014 19.981980 92.337159 0.312448 0.593967 -10.778947 2.878996 -10.493482 -30.592978 0.000000 0.000000 0.000000 29.920619 -2.382648 7.024493 -0.676090 -5.246059 14.614352 -2.395802 3.994359 -28.343520 -2.587812 -9.989595 28.948583 3.635216 8.103727 23.336809 -3.311349 11.608720 7.264664 -8.475406 6.041663 -3.326459 1.221868 -6.578704 -17.706389 0.209764 -9.163756 28.702451 -1.496573 -3.627456 12.381083 0.000000 0.000000 0.000000 6.956836 36.288939 10.893175 15.653015 -25.047570 3.497970 39.355741 -29.448894 21.383589 0.000000 0.000000 0.000000 -7.125000 0.000000 0.000000 6.567985 3.273027 6.224882 0.000000 0.000000 0.000000 -14.617147 -8.928772 50.531018 -51.518866 -53.583737 -27.393528 -22.987308 5.005357 22.922578 0.000000 0.000000 0.000000 7.125000 0.000000 0.000000 6.459392 54.536518 -1.517485
